<svg xmlns="http://www.w3.org/2000/svg" viewBox="0 0 240 240" role="img" aria-labelledby="title desc">
  <title id="title">LOOPERS MEETUP icon</title>
  <desc id="desc">Black rounded square icon with a white loop and center star.</desc>
  <defs>
    <radialGradient id="surface" cx="68%" cy="18%" r="82%">
      <stop offset="0%" stop-color="#3a3a3d"/>
      <stop offset="42%" stop-color="#151518"/>
      <stop offset="100%" stop-color="#050506"/>
    </radialGradient>
    <linearGradient id="edge" x1="0" x2="1" y1="0" y2="1">
      <stop offset="0%" stop-color="#4b4b4f"/>
      <stop offset="48%" stop-color="#0d0d0f"/>
      <stop offset="100%" stop-color="#2b2b2e"/>
    </linearGradient>
    <filter id="softShadow" x="-20%" y="-20%" width="140%" height="140%">
      <feDropShadow dx="0" dy="9" stdDeviation="10" flood-color="#000000" flood-opacity="0.38"/>
      <feDropShadow dx="0" dy="-2" stdDeviation="3" flood-color="#ffffff" flood-opacity="0.08"/>
    </filter>
  </defs>
  <rect x="4" y="4" width="232" height="232" rx="42" fill="url(#surface)" stroke="url(#edge)" stroke-width="4" filter="url(#softShadow)"/>
  <g fill="#ffffff">
    <path d="M18 128c9.6-7.4 45.4-13.1 88.2-14.5 31.1-1 65.8.6 90.1 5 21.4 3.8 31.1 8.4 29.1 12.9-3.6 8-41.7 13.5-89.8 12.5-42-.9-78.4-5.9-95.3-12.5 19.2 3.6 51.4 6.4 86.2 6.7 45.4.4 78.4-4 80.1-9.4 1.6-5.2-28-9.9-73.1-10.7-45.5-.8-91.2 3.3-115.5 10z"/>
    <path d="M120 65l8.5 48.1 42.9-18.9-37.5 29.1 39.2 25.6-44.8-15.3-8.3 49-8.3-49-44.8 15.3 39.2-25.6-37.5-29.1 42.9 18.9z"/>
  </g>
</svg>
